<svg width="47" height="75" viewBox="0 0 47 75" fill="none" xmlns="http://www.w3.org/2000/svg">
<path d="M30.5412 14.0604C34.4327 14.0604 37.59 10.9115 37.59 7.03022C37.59 3.14895 34.4327 0 30.5412 0C26.6496 0 23.4924 3.14895 23.4924 7.03022C23.4924 10.9115 26.6496 14.0604 30.5412 14.0604ZM44.4185 35.8981L40.9969 34.1698L39.5725 29.8638C37.4138 23.3315 31.3929 18.7619 24.5644 18.7473C19.2778 18.7326 16.3554 20.2265 10.8632 22.4381C7.69128 23.7123 5.09203 26.129 3.56479 29.2047L2.58089 31.1966C1.43546 33.5107 2.36062 36.3228 4.66616 37.4799C6.95703 38.6369 9.74718 37.6996 10.9073 35.3854L11.8912 33.3935C12.4052 32.3683 13.2569 31.5628 14.3142 31.138L18.2498 29.5562L16.0177 38.4465C15.2541 41.4929 16.0764 44.7298 18.2058 47.0585L27.0021 56.6372C28.0594 57.7943 28.8083 59.1857 29.1901 60.6942L31.8775 71.43C32.509 73.9345 35.0642 75.4723 37.5753 74.8426C40.0864 74.2128 41.6284 71.6643 40.9969 69.1598L37.7368 56.1246C37.355 54.616 36.6061 53.21 35.5488 52.0676L28.8671 44.7884L31.3929 34.7264L32.2006 37.143C32.9789 39.501 34.653 41.449 36.8557 42.5621L40.2773 44.2904C42.5682 45.4474 45.3584 44.5101 46.5185 42.196C47.6492 39.8965 46.7241 37.0551 44.4185 35.8981ZM10.8045 56.5054C10.3346 57.6917 9.6297 58.7609 8.71923 59.6543L1.37672 66.9921C-0.458907 68.8229 -0.458907 71.7961 1.37672 73.6269C3.21235 75.4577 6.17872 75.4577 8.01435 73.6269L16.7373 64.927C17.633 64.0336 18.3379 62.9644 18.8225 61.7781L20.805 56.8276C12.6842 47.9959 15.1219 50.7055 13.8443 48.9626L10.8045 56.5054Z" fill="#807E56"/>
</svg>
