<svg width="91" height="91" viewBox="0 0 91 91" fill="none" xmlns="http://www.w3.org/2000/svg">
<path fill-rule="evenodd" clip-rule="evenodd" d="M54.459 59.1761C54.459 58.4728 53.9572 57.8724 53.2721 57.6952C44.6894 55.4748 38.1892 48.1293 37.2818 39.1456C37.2018 38.3539 36.5504 37.7212 35.7494 37.7212H12.8592C12.3241 37.7211 11.7981 37.8577 11.3325 38.1178C10.8669 38.3779 10.4775 38.7526 10.2025 39.2053L3.22017 50.6781C3.07924 50.91 3.00329 51.1747 3.0001 51.4451C2.99692 51.7155 3.0666 51.9819 3.20202 52.217C3.33744 52.4521 3.53375 52.6475 3.77087 52.7833C4.008 52.9191 4.27743 52.9903 4.55161 52.9897H6.52757C7.34815 52.9897 8.01336 53.6505 8.01336 54.4657V78.9462C8.01336 79.7561 8.33959 80.5328 8.92027 81.1055C9.50095 81.6782 10.2885 81.9999 11.1097 81.9999H12.6579C13.4791 81.9999 14.2667 81.6782 14.8474 81.1055C15.4281 80.5328 15.7543 79.7561 15.7543 78.9462V62.7616C15.7543 62.5996 15.8195 62.4442 15.9357 62.3297C16.0518 62.2152 16.2093 62.1508 16.3736 62.1508H25.9723C26.1366 62.1508 26.2941 62.2152 26.4102 62.3297C26.5264 62.4442 26.5916 62.5996 26.5916 62.7616V78.9462C26.5916 79.7561 26.9178 80.5328 27.4985 81.1055C28.0792 81.6782 28.8668 81.9999 29.688 81.9999H51.3626C52.1838 81.9999 52.9714 81.6782 53.5521 81.1055C54.1328 80.5328 54.459 79.7561 54.459 78.9462V59.1761ZM34.0756 61.3874C33.3634 61.3874 32.7844 61.9554 32.7844 62.6577V71.5654C32.7844 71.7326 32.8178 71.8982 32.8827 72.0527C32.9475 72.2072 33.0427 72.3476 33.1626 72.4658C33.2825 72.584 33.4248 72.6779 33.5814 72.7418C33.7381 72.8058 33.906 72.8388 34.0756 72.8388H46.9751C47.6903 72.8388 48.2663 72.2677 48.2663 71.5654V62.6608C48.2663 61.9584 47.6872 61.3874 46.9751 61.3874H34.0756Z" fill="#807E56"/>
<path fill-rule="evenodd" clip-rule="evenodd" d="M62.2172 14.3767C57.4605 14.3767 52.8987 16.2664 49.5352 19.6302C46.1717 22.994 44.2821 27.5562 44.2821 32.3133C44.2821 37.0704 46.1717 41.6326 49.5352 44.9964C52.8987 48.3602 57.4605 50.2499 62.2172 50.2499C66.9739 50.2499 71.5357 48.3602 74.8992 44.9964C78.2627 41.6326 80.1523 37.0704 80.1523 32.3133C80.1523 27.5562 78.2627 22.994 74.8992 19.6302C71.5357 16.2664 66.9739 14.3767 62.2172 14.3767ZM38.9016 32.3133C38.9023 28.6312 39.7749 25.0017 41.4479 21.7217C43.1209 18.4418 45.5469 15.6047 48.5271 13.4428C51.5074 11.2808 54.9572 9.85539 58.5942 9.28324C62.2312 8.71108 65.952 9.00845 69.452 10.151C72.952 11.2935 76.1317 13.2487 78.7308 15.8566C81.3299 18.4645 83.2746 21.6508 84.4055 25.1549C85.5365 28.6589 85.8216 32.381 85.2376 36.0164C84.6536 39.6518 83.217 43.0973 81.0455 46.0707L88.0688 53.0947C88.4114 53.4256 88.6847 53.8214 88.8727 54.2591C89.0607 54.6967 89.1596 55.1675 89.1638 55.6438C89.1679 56.1201 89.0772 56.5925 88.8968 57.0334C88.7164 57.4742 88.4501 57.8748 88.1133 58.2116C87.7765 58.5484 87.376 58.8148 86.9352 58.9952C86.4943 59.1755 86.022 59.2663 85.5457 59.2622C85.0694 59.258 84.5988 59.1591 84.1611 58.9711C83.7235 58.783 83.3277 58.5098 82.9968 58.1671L75.9734 51.1431C72.4971 53.6837 68.3852 55.2119 64.0935 55.5584C59.8019 55.9049 55.4981 55.0562 51.6592 53.1063C47.8203 51.1565 44.5963 48.1816 42.3445 44.5115C40.0927 40.8413 38.901 36.6193 38.9016 32.3133ZM59.4911 22.8786C60.1367 19.9227 64.3407 19.9047 65.0115 22.8535L65.0438 22.9898C65.3663 24.6052 66.1701 26.085 67.3493 27.235C68.5286 28.3849 70.0282 29.151 71.6511 29.4327C74.7323 29.9672 74.7323 34.3903 71.6511 34.9249C70.0647 35.1995 68.5949 35.9374 67.4269 37.0455C66.2589 38.1537 65.4447 39.5826 65.0868 41.1525L65.0079 41.504C64.3371 44.4492 60.1296 44.4313 59.4839 41.4789L59.4193 41.1776C59.0751 39.6032 58.2695 38.1672 57.1054 37.0528C55.9413 35.9385 54.4716 35.1964 52.8838 34.9213C49.8097 34.3832 49.8097 29.9708 52.8838 29.4327C54.4655 29.1588 55.9303 28.4214 57.0926 27.314C58.2548 26.2066 59.0621 24.779 59.4122 23.2122L59.4588 22.9898L59.4839 22.8786H59.4911Z" fill="#807E56"/>
</svg>
