<svg width="123" height="80" viewBox="0 0 123 80" fill="none" xmlns="http://www.w3.org/2000/svg">
<path d="M39.5117 0C61.334 0 79.0234 17.6894 79.0234 39.5117C79.0234 61.334 61.334 79.0234 39.5117 79.0234H4.82845C3.04665 79.0234 2.15431 76.8692 3.41424 75.6092L10.157 68.8664C10.9388 68.0847 10.9338 66.8203 10.1918 66.0008C7.16368 62.6565 4.72912 58.8131 2.9988 54.6358C1.01274 49.8412 -0.00636962 44.7014 2.99537e-05 39.5117C2.99537e-05 17.6894 17.6894 0 39.5117 0ZM55.1901 45.4576C55.3295 44.3619 54.421 43.4629 53.3164 43.4629H25.7071C24.6025 43.4629 23.694 44.3619 23.8334 45.4576C24.273 48.9136 25.8463 52.1487 28.3361 54.6385C31.3001 57.6024 35.3201 59.2676 39.5117 59.2676C43.7034 59.2676 47.7234 57.6024 50.6873 54.6385C53.1772 52.1487 54.7505 48.9136 55.1901 45.4576Z" fill="#807E56"/>
<path d="M89.25 22.0801C95.8595 30.9354 95.8595 48.0881 89.25 56.9434M104.125 4.64844C123.899 23.6141 124.018 55.5339 104.125 74.375" stroke="#807E56" stroke-width="8" stroke-linecap="round" stroke-linejoin="round"/>
</svg>
