<svg width="107" height="107" viewBox="0 0 107 107" fill="none" xmlns="http://www.w3.org/2000/svg">
<path d="M40.1251 22.2917C22.8892 22.2917 8.91675 36.2642 8.91675 53.5001C8.91675 70.736 22.8892 84.7084 40.1251 84.7084H66.8751C84.111 84.7084 98.0834 70.736 98.0834 53.5001C98.0834 36.2642 84.111 22.2917 66.8751 22.2917H40.1251ZM36.224 40.1251C37.7622 40.1251 39.0105 41.3734 39.0105 42.9115V51.2709H46.2553C46.9943 51.2709 47.7031 51.5645 48.2256 52.087C48.7482 52.6096 49.0417 53.3184 49.0417 54.0574C49.0417 54.7964 48.7482 55.5051 48.2256 56.0277C47.7031 56.5503 46.9943 56.8438 46.2553 56.8438H39.0105V64.0886C39.0105 64.8276 38.7169 65.5364 38.1944 66.0589C37.6718 66.5815 36.9631 66.8751 36.224 66.8751C35.485 66.8751 34.7763 66.5815 34.2537 66.0589C33.7312 65.5364 33.4376 64.8276 33.4376 64.0886V56.8438H25.0782C24.3392 56.8438 23.6304 56.5503 23.1079 56.0277C22.5853 55.5051 22.2917 54.7964 22.2917 54.0574C22.2917 53.3184 22.5853 52.6096 23.1079 52.087C23.6304 51.5645 24.3392 51.2709 25.0782 51.2709H33.4376V42.9115C33.4376 41.3734 34.6859 40.1251 36.224 40.1251ZM71.3334 61.3022C71.3334 62.7802 70.7463 64.1977 69.7011 65.2428C68.656 66.2879 67.2385 66.8751 65.7605 66.8751C64.2825 66.8751 62.865 66.2879 61.8199 65.2428C60.7747 64.1977 60.1876 62.7802 60.1876 61.3022C60.1876 59.8241 60.7747 58.4066 61.8199 57.3615C62.865 56.3164 64.2825 55.7292 65.7605 55.7292C67.2385 55.7292 68.656 56.3164 69.7011 57.3615C70.7463 58.4066 71.3334 59.8241 71.3334 61.3022ZM74.6772 51.2709C73.1991 51.2709 71.7816 50.6838 70.7365 49.6386C69.6914 48.5935 69.1043 47.176 69.1043 45.698C69.1043 44.22 69.6914 42.8025 70.7365 41.7573C71.7816 40.7122 73.1991 40.1251 74.6772 40.1251C76.1552 40.1251 77.5727 40.7122 78.6178 41.7573C79.6629 42.8025 80.2501 44.22 80.2501 45.698C80.2501 47.176 79.6629 48.5935 78.6178 49.6386C77.5727 50.6838 76.1552 51.2709 74.6772 51.2709Z" fill="#807E56"/>
</svg>
