<svg width="201" height="205" viewBox="0 0 201 205" fill="none" xmlns="http://www.w3.org/2000/svg">
<g filter="url(#filter0_d_89_183)">
<path fill-rule="evenodd" clip-rule="evenodd" d="M105.584 193.804C105.896 193.698 106.208 193.569 106.536 193.537C155.632 188.747 194 147.354 194 97C194 43.4284 150.572 0 97 0C43.4284 0 0 43.4284 0 97C0 129.15 15.6408 157.646 39.7282 175.296C40.7543 176.048 40.8661 177.551 39.939 178.422L24.4582 192.967C23.1683 194.179 23.9857 196.346 25.754 196.422C59.9657 197.887 76.3935 198.21 105.202 193.896C105.337 193.876 105.464 193.845 105.584 193.804Z" fill="#276204"/>
</g>
<defs>
<filter id="filter0_d_89_183" x="0" y="0" width="201" height="204.408" filterUnits="userSpaceOnUse" color-interpolation-filters="sRGB">
<feFlood flood-opacity="0" result="BackgroundImageFix"/>
<feColorMatrix in="SourceAlpha" type="matrix" values="0 0 0 0 0 0 0 0 0 0 0 0 0 0 0 0 0 0 127 0" result="hardAlpha"/>
<feOffset dx="7" dy="7"/>
<feComposite in2="hardAlpha" operator="out"/>
<feColorMatrix type="matrix" values="0 0 0 0 0 0 0 0 0 0 0 0 0 0 0 0 0 0 0.25 0"/>
<feBlend mode="normal" in2="BackgroundImageFix" result="effect1_dropShadow_89_183"/>
<feBlend mode="normal" in="SourceGraphic" in2="effect1_dropShadow_89_183" result="shape"/>
</filter>
</defs>
</svg>
